<?xml version="1.0" encoding="utf-8"?>
<!-- Generator: Adobe Illustrator 24.3.0, SVG Export Plug-In . SVG Version: 6.00 Build 0)  -->
<svg version="1.1" id="Capa_1" xmlns="http://www.w3.org/2000/svg" xmlns:xlink="http://www.w3.org/1999/xlink" x="0px" y="0px"
	 viewBox="0 0 1500 1500" style="enable-background:new 0 0 1500 1500;" xml:space="preserve">
<style type="text/css">
	.st0{fill:#87B240;}
	.st1{fill:#F9FAE9;}
	.st2{fill:#A3CD39;}
</style>
<path class="st0" d="M1162.64,1500H337.36C151.04,1500,0,1348.96,0,1162.64V337.36C0,151.04,151.04,0,337.36,0h825.27
	C1348.96,0,1500,151.04,1500,337.36v825.27C1500,1348.96,1348.96,1500,1162.64,1500z"/>
<path class="st1" d="M549.65,1211.86L549.65,1211.86c-34.71,0-62.85-28.14-62.85-62.85V287.28h125.7v861.72
	C612.5,1183.72,584.36,1211.86,549.65,1211.86z"/>
<path class="st1" d="M1207.65,1133.12L1207.65,1133.12c-23.34,25.7-63.08,27.61-88.78,4.27L780.44,830.06L864.95,737l338.43,307.34
	C1229.07,1067.68,1230.99,1107.43,1207.65,1133.12z"/>
<path class="st2" d="M932.48,571.87L707.04,816.71c-13.49,14.65-36.55,4.27-36.55-16.44V310.58c0-20.72,23.06-31.09,36.55-16.44
	l225.44,244.84C940.84,548.07,940.84,562.79,932.48,571.87z"/>
</svg>
