<?xml version="1.0" encoding="utf-8"?>
<!-- Generator: Adobe Illustrator 24.3.0, SVG Export Plug-In . SVG Version: 6.00 Build 0)  -->
<svg version="1.1" id="Capa_1" xmlns="http://www.w3.org/2000/svg" xmlns:xlink="http://www.w3.org/1999/xlink" x="0px" y="0px"
	 viewBox="0 0 1500 1500" style="enable-background:new 0 0 1500 1500;" xml:space="preserve">
<style type="text/css">
	.st0{display:none;fill:#5F7161;}
	.st1{display:none;fill:#6D8B74;}
</style>
<path class="st0" d="M1245,1500H255c-140.83,0-255-114.17-255-255V255C0,114.17,114.17,0,255,0h990c140.83,0,255,114.17,255,255v990
	C1500,1385.83,1385.83,1500,1245,1500z"/>
<path class="st1" d="M1250.21,884.07l-686.41,574.79c-113.83,95.32-287.15,14.39-287.15-134.08V175.21
	c0-148.46,173.33-229.39,287.15-134.08l686.41,574.78C1333.68,685.81,1333.68,814.17,1250.21,884.07z"/>
<polygon points="897.22,484.66 897.22,1018.76 712.49,1018.76 712.49,757.06 450.8,1018.76 448.3,1016.26 445.8,1018.76 
	184.72,757.68 184.72,1018.76 0,1015.34 0,481.24 183.73,484.66 448.3,749.23 712.49,485.04 712.87,484.66 "/>
<polygon points="147.59,481.24 147.59,482.23 146.6,481.24 "/>
<polygon points="712.87,484.66 712.49,485.04 712.49,484.66 "/>
<polygon points="1500,481.24 1500,665.97 1325.33,665.97 1325.33,1015.34 1140.61,1015.34 1140.61,665.97 965.91,669.39 
	965.91,484.66 "/>
</svg>
